# xmcd
#
# Track frame offsets:
#	150
#	46983
#	77349
#	116965
#	135990
#	170704
#	182811
#	209127
#	245886
#
# Disc length: 3396 seconds
#
# Revision: 8
# Processed by: cddbd v1.5.2PL0 Copyright (c) Steve Scherf et al.
# Submitted via: audiograbber 1.83.01
#
DISCID=840d4209
DTITLE=George Winston - Autumn - 20th Anniversary Edition
DYEAR=2001
DGENRE=New Age
TTITLE0=Colors/Dance
TTITLE1=Woods
TTITLE2=Longing/Love
TTITLE3=Road
TTITLE4=Moon
TTITLE5=Sea
TTITLE6=Stars
TTITLE7=Too Much Between Us - Bonus Track
TTITLE8=(Data Track)
EXTD=Originally issued in 1980, this anniversary disc has a Bonus track and com
EXTD=puter-CD data portion.
EXTT0=
EXTT1=
EXTT2=
EXTT3=
EXTT4=
EXTT5=
EXTT6=
EXTT7=
EXTT8=
PLAYORDER=
